PathFileType	4	(X/Y/Z)	/Users/itak/Documents/Research/Walk-IL/dataset/trc/00430_00167.trc
DataRate	CameraRate	NumFrames	NumMarkers	Units	OrigDataRate	OrigDataStartFrame	OrigNumFrames
100.000000	100.000000	4	53	mm	100.000000	654	748
Frame#	Time	RPSI			LPSI			L3			STRN			T10			C7			CLAV			RBAK			LBAK			LSHO			LUPA			LAEL			LAOL			LWTS			LWPS			LFRA			LIFD			LHPS			LHTS			RSHO			RUPA			RAEL			RAOL			RWTS			RWPS			RFRA			RIFD			RHTS			RHPS			RBHD			LFHD			RFHD			LBHD			LHIP			RHIP			RASI			LASI			LKNE			LTHI			LANK			LTIP			LTOE			LMT1			LMT5			LHEE			RKNE			RTHI			RANK			RTIP			RTOE			RMT1			RMT5			RHEE			
		X1	Y1	Z1	X2	Y2	Z2	X3	Y3	Z3	X4	Y4	Z4	X5	Y5	Z5	X6	Y6	Z6	X7	Y7	Z7	X8	Y8	Z8	X9	Y9	Z9	X10	Y10	Z10	X11	Y11	Z11	X12	Y12	Z12	X13	Y13	Z13	X14	Y14	Z14	X15	Y15	Z15	X16	Y16	Z16	X17	Y17	Z17	X18	Y18	Z18	X19	Y19	Z19	X20	Y20	Z20	X21	Y21	Z21	X22	Y22	Z22	X23	Y23	Z23	X24	Y24	Z24	X25	Y25	Z25	X26	Y26	Z26	X27	Y27	Z27	X28	Y28	Z28	X29	Y29	Z29	X30	Y30	Z30	X31	Y31	Z31	X32	Y32	Z32	X33	Y33	Z33	X34	Y34	Z34	X35	Y35	Z35	X36	Y36	Z36	X37	Y37	Z37	X38	Y38	Z38	X39	Y39	Z39	X40	Y40	Z40	X41	Y41	Z41	X42	Y42	Z42	X43	Y43	Z43	X44	Y44	Z44	X45	Y45	Z45	X46	Y46	Z46	X47	Y47	Z47	X48	Y48	Z48	X49	Y49	Z49	X50	Y50	Z50	X51	Y51	Z51	X52	Y52	Z52	X53	Y53	Z53	

655	6.54	1010.336975097656	967.23974609375	1031.678466796875	1099.65771484375	967.6592407226562	920.5932006835938	1057.352905273438	1056.765258789062	999.7716674804688	1277.490234375	1244.811889648438	1150.077514648438	1041.524169921875	1180.194213867188	984.4303588867188	1090.271484375	1448.186279296875	1030.718627929688	1251.5576171875	1359.386108398438	1126.953125	983.405517578125	1329.888793945312	1074.672607421875	1122.259765625	1401.53466796875	929.7529296875	1252.715698242188	1418.366333007812	927.0484619140625	1301.124633789062	1303.690185546875	836.9119873046875	1351.486083984375	1096.61572265625	811.2444458007812	1253.189819335938	1067.67919921875	823.5054931640625	1432.222290039062	918.9518432617188	912.657470703125	1430.0400390625	892.8529052734375	843.5215454101562	1389.89306640625	1015.825012207031	822.6676635742188	1471.524780273438	756.4651489257812	936.63232421875	1451.193115234375	815.5413818359375	860.2882080078125	1468.159545898438	836.1126098632812	925.753662109375	1059.297485351562	1418.577270507812	1203.515014648438	1000.395812988281	1361.747680664062	1258.865844726562	958.67138671875	1081.088989257812	1324.063354492188	936.82275390625	1057.656616210938	1264.115112304688	1082.00048828125	896.2128295898438	1370.073486328125	997.8094482421875	873.2962036132812	1380.20654296875	960.2715454101562	1024.2998046875	1340.465209960938	1094.15576171875	739.9566040039062	1401.987915039062	1095.846435546875	800.6349487304688	1403.473510742188	1021.208312988281	790.5287475585938	1401.960205078125	1121.870361328125	1643.622436523438	1149.960205078125	1321.407836914062	1648.92919921875	1096.082153320312	1248.763061523438	1650.8779296875	1204.161743164062	1207.460815429688	1647.232055664062	994.2305297851562	1274.495361328125	855.9464111328125	908.7322998046875	1012.440185546875	851.7689819335938	1206.829956054688	1131.824951171875	888.8724365234375	1224.916381835938	1304.295776367188	889.341064453125	1032.780639648438	1261.080932617188	430.7891845703125	940.4392700195312	1288.44873046875	583.1038818359375	935.3679809570312	1202.159301757812	26.63240623474121	882.4434204101562	1257.665649414062	275.2790222167969	923.2963256835938	1312.730712890625	31.57343292236328	1089.195434570312	1239.441162109375	36.9250602722168	1055.265747070312	1318.905639648438	32.30782318115234	974.9058837890625	1129.62353515625	30.66940689086914	877.7171630859375	1040.729858398438	452.0580444335938	1176.266845703125	1037.779296875	713.5133056640625	1232.390014648438	1034.785888671875	30.53598403930664	1143.00439453125	1036.548828125	307.8482055664062	1182.961303710938	1239.61279296875	35.17716979980469	1224.83837890625	1206.039184570312	42.31580352783203	1160.45361328125	1130.95166015625	37.17465209960938	1239.360961914062	1006.247741699219	23.76992797851562	1069.591186523438	
656	6.55	1010.6552734375	967.095458984375	1032.069946289062	1099.93994140625	967.5723876953125	920.9015502929688	1057.559204101562	1056.523193359375	1000.094787597656	1277.53515625	1244.928955078125	1150.253662109375	1041.6591796875	1179.933837890625	984.625	1090.077270507812	1448.058471679688	1030.76806640625	1251.447387695312	1359.514892578125	1127.124145507812	983.3226928710938	1329.618530273438	1074.75341796875	1122.263916015625	1401.502563476562	929.7241821289062	1252.604125976562	1418.398193359375	927.1912231445312	1301.406494140625	1303.873901367188	837.1195678710938	1352.416259765625	1096.992065429688	811.438232421875	1254.205078125	1067.743286132812	823.5789184570312	1433.703125	919.6891479492188	912.9865112304688	1431.642211914062	893.5292358398438	843.8499145507812	1391.085327148438	1016.330993652344	822.9176025390625	1473.765502929688	757.4228515625	937.06201171875	1453.197631835938	816.35693359375	860.685791015625	1470.012573242188	837.0382690429688	926.1301879882812	1059.098510742188	1418.484741210938	1203.531616210938	1000.268798828125	1361.62158203125	1258.846435546875	959.194091796875	1080.916625976562	1324.4140625	937.3609619140625	1057.308471679688	1264.461669921875	1083.185180664062	896.5171508789062	1370.429443359375	999.1441040039062	873.3543701171875	1380.714233398438	960.9437255859375	1024.054443359375	1340.791259765625	1096.125366210938	740.4879760742188	1402.814697265625	1097.574584960938	801.3047485351562	1404.260498046875	1022.948974609375	790.7661743164062	1402.71142578125	1121.443481445312	1643.610229492188	1149.90771484375	1320.914184570312	1649.137451171875	1095.958618164062	1248.3037109375	1651.093139648438	1204.027465820312	1207.00390625	1647.189575195312	994.0240478515625	1274.6904296875	855.8460083007812	908.98486328125	1012.984436035156	851.7301025390625	1207.308837890625	1132.3603515625	888.8831787109375	1225.353515625	1304.712646484375	889.3232421875	1033.0341796875	1260.70751953125	430.7796020507812	940.1441650390625	1288.27587890625	582.9821166992188	935.1725463867188	1202.203369140625	26.57736015319824	882.3949584960938	1257.522216796875	275.2906494140625	923.0882568359375	1312.680053710938	31.58151245117188	1089.215942382812	1239.383056640625	36.86807250976562	1055.259399414062	1318.871704101562	32.30971527099609	974.9026489257812	1129.669555664062	30.57750701904297	877.5953979492188	1041.019165039062	452.0725402832031	1176.4453125	1038.276245117188	713.4984741210938	1232.873901367188	1034.821044921875	30.55993270874023	1142.972534179688	1036.69921875	307.7788391113281	1183.101440429688	1239.612670898438	35.18563842773438	1224.848388671875	1206.046264648438	42.31658172607422	1160.468383789062	1130.95361328125	37.18305206298828	1239.358764648438	1006.307556152344	23.79874992370605	1069.5869140625	
657	6.56	1010.954406738281	966.94921875	1032.465087890625	1100.199829101562	967.4700317382812	921.22265625	1057.810913085938	1056.296020507812	1000.372497558594	1277.584838867188	1245.041381835938	1150.425170898438	1041.807250976562	1179.685791015625	984.78857421875	1089.9169921875	1447.940795898438	1030.798950195312	1251.337280273438	1359.63623046875	1127.293212890625	983.2760620117188	1329.373657226562	1074.766723632812	1122.289184570312	1401.463623046875	929.7108764648438	1252.546508789062	1418.430908203125	927.3402709960938	1301.745239257812	1304.0537109375	837.3382568359375	1353.348876953125	1097.339599609375	811.6213989257812	1255.195922851562	1067.8291015625	823.6263427734375	1435.035400390625	920.23828125	913.1685791015625	1433.071533203125	894.0831909179688	844.0093383789062	1392.221801757812	1016.766296386719	823.0977783203125	1475.660888671875	758.116455078125	937.1996459960938	1454.922485351562	817.00634765625	860.8408203125	1471.613891601562	837.7119140625	926.292236328125	1058.911743164062	1418.411743164062	1203.531372070312	1000.122253417969	1361.498168945312	1258.777587890625	959.6956176757812	1080.74462890625	1324.686279296875	937.8336181640625	1056.998046875	1264.71337890625	1084.239501953125	896.7172241210938	1370.602416992188	1000.345764160156	873.3496704101562	1381.0634765625	961.5429077148438	1023.779968261719	1341.010498046875	1097.924194335938	740.9071044921875	1403.370239257812	1099.153076171875	801.8601684570312	1404.79736328125	1024.537353515625	790.9154052734375	1403.235229492188	1121.009521484375	1643.57373046875	1149.83740234375	1320.437133789062	1649.345458984375	1095.851928710938	1247.855224609375	1651.300415039062	1203.911987304688	1206.569946289062	1647.16162109375	993.8316650390625	1274.868041992188	855.7476806640625	909.1943359375	1013.522277832031	851.6690063476562	1207.7666015625	1132.922241210938	888.8984985351562	1225.751342773438	1305.072265625	889.2979125976562	1033.23291015625	1260.356689453125	430.775146484375	939.8303833007812	1288.133422851562	582.8735961914062	934.9751586914062	1202.251098632812	26.51952934265137	882.33984375	1257.377807617188	275.3158874511719	922.8544921875	1312.628662109375	31.59179496765137	1089.232299804688	1239.32666015625	36.81892776489258	1055.23828125	1318.84423828125	32.31537246704102	974.8943481445312	1129.716552734375	30.47394371032715	877.4777221679688	1041.348754882812	452.0437927246094	1176.621215820312	1038.822143554688	713.5154418945312	1233.357788085938	1034.855102539062	30.58553504943848	1142.941528320312	1036.871337890625	307.7021179199219	1183.244018554688	1239.613403320312	35.19527053833008	1224.85791015625	1206.055297851562	42.31575775146484	1160.479858398438	1130.9580078125	37.18960189819336	1239.353759765625	1006.3662109375	23.82679557800293	1069.59814453125	
658	6.57	1011.242370605469	966.8081665039062	1032.858520507812	1100.43603515625	967.353515625	921.5682983398438	1058.095092773438	1056.08154296875	1000.613037109375	1277.637939453125	1245.14892578125	1150.590209960938	1041.973266601562	1179.444091796875	984.9194946289062	1089.787475585938	1447.827880859375	1030.814331054688	1251.230102539062	1359.745849609375	1127.453735351562	983.26611328125	1329.155639648438	1074.718872070312	1122.326782226562	1401.404296875	929.7286376953125	1252.543090820312	1418.467041015625	927.4985961914062	1302.1357421875	1304.227661132812	837.566650390625	1354.276123046875	1097.65576171875	811.794189453125	1256.155883789062	1067.924194335938	823.6603393554688	1436.218017578125	920.6013793945312	913.2052612304688	1434.327392578125	894.5133056640625	844.0045166015625	1393.296752929688	1017.129699707031	823.2090454101562	1477.206909179688	758.5465087890625	937.0547485351562	1456.367919921875	817.4883422851562	860.7605590820312	1472.966796875	838.1375122070312	926.2457275390625	1058.735961914062	1418.355590820312	1203.517700195312	999.9669799804688	1361.379638671875	1258.682739257812	960.1705322265625	1080.56201171875	1324.871459960938	938.240234375	1056.727905273438	1264.874389648438	1085.16259765625	896.8258666992188	1370.620483398438	1001.407348632812	873.2706909179688	1381.25390625	962.0798950195312	1023.485900878906	1341.121704101562	1099.532958984375	741.1976318359375	1403.647094726562	1100.547973632812	802.2618408203125	1405.068237304688	1025.960815429688	790.9688110351562	1403.532836914062	1120.570190429688	1643.513427734375	1149.746215820312	1319.978393554688	1649.551635742188	1095.755493164062	1247.407592773438	1651.50341796875	1203.815063476562	1206.15673828125	1647.144653320312	993.6608276367188	1275.037109375	855.6583251953125	909.3740844726562	1014.052124023438	851.5930786132812	1208.210571289062	1133.496948242188	888.916015625	1226.1142578125	1305.375610351562	889.2615356445312	1033.383056640625	1260.041259765625	430.77978515625	939.50439453125	1288.0263671875	582.7785034179688	934.7777099609375	1202.298583984375	26.46053504943848	882.2816772460938	1257.229614257812	275.3593139648438	922.5999755859375	1312.577270507812	31.60526657104492	1089.243286132812	1239.275512695312	36.78409576416016	1055.204833984375	1318.823974609375	32.32516479492188	974.8815307617188	1129.762084960938	30.36349678039551	877.3707275390625	1041.720825195312	451.9701538085938	1176.8017578125	1039.40966796875	713.5518188476562	1233.83349609375	1034.887084960938	30.60880088806152	1142.908569335938	1037.06396484375	307.6249694824219	1183.384399414062	1239.61572265625	35.2060432434082	1224.8671875	1206.066284179688	42.3121452331543	1160.4873046875	1130.964965820312	37.19584274291992	1239.346923828125	1006.420593261719	23.85221290588379	1069.613891601562	
